<svg xmlns="http://www.w3.org/2000/svg" width="1194" height="660" viewBox="0 0 1194 660"><path d="M0 0h1194v660H0z" style="fill:#020001"/><path d="M0 0h617v129h-42V43H43v532h532v-93h42v136H0z" style="fill:#029de2" transform="translate(38 19)"/><path d="m0 0 4.732-.012q4.941-.007 9.882.022c4.197.023 8.394.01 12.59-.015 3.255-.014 6.509-.01 9.763.001q2.32.005 4.64-.01c10.036-.048 18.585.517 26.92 6.588 8.254 8.55 11.326 16.39 11.316 28.297l.004 3.799-.01 4.128v4.377q-.001 5.925-.013 11.85-.008 6.198-.008 12.396-.005 11.73-.021 23.459-.016 13.356-.022 26.713-.017 27.47-.05 54.938h37v-176h41c.067 23.784.123 47.567.155 71.35q.022 16.566.071 33.132.046 14.444.056 28.887.004 7.644.035 15.286.029 7.206.022 14.41 0 2.634.018 5.268c.082 13.026.135 25.66-9.357 35.667l-1.594 1.715c-8.618 8.313-20.135 7.748-31.379 7.719q-2.3.006-4.6.016-4.798.012-9.595-.004c-4.077-.011-8.153.01-12.23.038-3.162.019-6.324.018-9.485.013q-2.254 0-4.508.018c-11.665.083-20.084-1.427-28.816-9.515-5.706-6.364-7.92-12.837-7.914-21.251l-.004-3.893.011-4.263v-4.494q0-6.099.012-12.198.008-6.373.008-12.748.006-12.07.022-24.139.014-13.74.021-27.482c.01-18.844.03-37.688.05-56.532h-37v176h-41c-.09-24.487-.163-48.974-.207-73.461-.02-11.37-.048-22.74-.094-34.11q-.06-14.868-.075-29.735c-.005-5.247-.017-10.493-.046-15.74a2206 2206 0 0 1-.03-14.826q0-2.715-.024-5.43c-.09-11.076.023-20.573 8.04-29.073l1.753-1.898 1.684-1.727 1.375-1.473C-19.512-.889-9.464-.057 0 0" style="fill:#f8f8f8" transform="translate(295.277 219.469)"/><path d="m0 0 2.028-.02C4.22-.04 6.411-.043 8.602-.045l4.614-.02q4.823-.018 9.647-.015c4.101 0 8.201-.027 12.302-.062 3.175-.022 6.349-.026 9.523-.025q2.267-.003 4.533-.027c11.767-.11 20.148 1.365 28.912 9.57 9.081 9.716 9.086 20.832 9.016 33.522l.001 4.379q-.001 5.905-.025 11.812c-.012 4.124-.014 8.247-.016 12.371q-.01 11.698-.043 23.395c-.022 8.883-.033 17.766-.043 26.649-.02 18.262-.058 36.524-.1 54.787h36V.29h41c.135 24.565.245 49.13.31 73.697.031 11.407.073 22.814.142 34.22q.091 14.919.112 29.837c.008 5.264.026 10.526.07 15.79q.059 7.44.044 14.882.002 2.721.037 5.442c.14 11.59-.546 21.257-8.711 30.355-9.071 8.869-19.187 9.381-31.282 9.308q-2.366.003-4.732.011-4.941.008-9.882-.021c-4.197-.023-8.394-.01-12.59.014-3.255.015-6.509.01-9.763 0q-2.32-.005-4.64.01c-9.889.047-18.444-.467-26.702-6.405-6.564-6.936-10.542-13.591-10.534-23.31l-.004-3.913.01-4.303v-4.523q.001-6.146.013-12.29.008-6.42.008-12.841.005-12.16.021-24.32.016-13.843.022-27.685.017-28.478.05-56.955h-37v176h-41c-.09-24.47-.164-48.94-.207-73.41q-.028-17.043-.094-34.087-.06-14.858-.075-29.715a3444 3444 0 0 0-.047-15.73q-.039-7.408-.03-14.818a686 686 0 0 0-.023-5.424c-.089-10.925.394-19.751 6.664-29.066C-18.312 3.63-10.725.068 0 0" style="fill:#f7f7f7" transform="translate(754.078 219.71)"/><path d="M0 0h40l-.063 10.92c-.067 11.903-.111 23.805-.144 35.707-.02 7.217-.049 14.434-.095 21.65q-.06 9.438-.074 18.875-.008 4.995-.047 9.99a1346 1346 0 0 0-.031 11.161l-.044 3.335c.033 6.103.371 9.742 4.498 14.362 6.979 5.06 14.45 4.216 22.75 4.25l3.79.063c8.373.035 14.85-.164 21.397-5.875 3.425-4.047 3.256-7.237 3.344-12.348l.055-2.554q.088-4.299.164-8.599l.12-6.092C96.232 63.233 96.596 31.615 97 0h40c.09 17.281.164 34.563.207 51.844q.028 12.038.095 24.075.06 10.498.074 20.996c.006 3.702.018 7.404.047 11.106.032 4.143.033 8.286.031 12.43l.044 3.677c-.05 10.495-2.157 19.43-9.584 27.157-18.574 16.641-50.992 14.298-74.031 13.102C38.733 163.444 24.76 162.037 12 153l-2.75-1.75C4.727 146.727.2 140.043-.123 133.507l.003-3.03-.004-3.481.01-3.821v-4.02q.001-5.461.013-10.922c.006-3.803.006-7.607.008-11.41q.005-10.806.021-21.611.016-12.3.022-24.602Q-.034 25.305 0 0" style="fill:#f7f7f7" transform="translate(1023 269)"/><path d="M0 0h40l-.063 10.92c-.067 11.903-.111 23.805-.144 35.707-.02 7.217-.049 14.434-.095 21.65q-.06 9.438-.074 18.875-.008 4.995-.047 9.99a1346 1346 0 0 0-.031 11.161l-.044 3.335c.033 6.105.375 9.738 4.498 14.362 6.889 5.122 15.044 4.215 23.25 4.25 1.785.03 1.785.03 3.605.063 7.925.035 14.796-.525 21.582-4.875 4.376-6.826 3.865-16.112 3.882-23.946l.03-3.345c.031-3.614.048-7.228.065-10.842q.028-3.78.059-7.558.068-8.898.116-17.795c.039-6.76.088-13.52.138-20.279.103-13.89.191-27.782.273-41.673h40c.068 17.299.123 34.597.155 51.896q.022 12.05.071 24.099.046 10.506.056 21.014.004 5.56.035 11.117c.025 4.146.025 8.292.024 12.438l.032 3.688c-.035 9.796-1.242 19.463-8.373 26.748-17.926 15.815-48.141 14.884-70.707 13.719-38.664-2.54-38.664-2.54-51.672-16.63-4.363-5.624-6.748-11.45-6.741-18.575l-.004-3.455.01-3.792v-3.992q.001-5.42.013-10.84c.006-3.775.006-7.55.008-11.327q.004-10.725.021-21.45.016-12.21.022-24.421Q-.034 25.119 0 0" style="fill:#f8f8f8" transform="translate(557 269)"/><path d="M0 0h44v144H0z" style="fill:#f9f9f9" transform="translate(949 289)"/><path d="M0 0h44v144H0z" style="fill:#f9f9f9" transform="translate(483 289)"/><path d="M0 0h44v36H0z" style="fill:#f9f9f9" transform="translate(949 228)"/><path d="M0 0h44v36H0z" style="fill:#f9f9f9" transform="translate(483 228)"/><path d="M0 0c7.429-.143 7.429-.143 11 1l-1 3c.15 3.448.444 6.887 2 10H-1C-2.429 4.429-2.429 4.429 0 0" style="fill:#c4c4c4" transform="translate(1149 494)"/><path d="M0 0h2v2h4l-.508 1.828-.617 2.422-.633 2.39C3.957 11.42 4.55 12.66 6 15l-2.25-1.062C.747 12.914-.076 13.15-3 14c-2.25-.437-2.25-.437-4-1V6h3V3l-3-1a100 100 0 0 1 5 0l1 1z" style="fill:#cbcbcb" transform="translate(762 494)"/><path d="m0 0-2 1 2 9h-6v2l-3-1a278 278 0 0 0-4-1l1-3c-.278-2.34-.605-4.676-1-7 4.63-1.016 8.345-.838 13 0" style="fill:#949494" transform="translate(999 496)"/><path d="M0 0c2 0 2 0 4 2h3l1 4H6v2l2 1v2H3l-1 3-3-1h2v-2h-6V9l6-1-6-2V3h2V1h2v2h2z" style="fill:#c4c3c4" transform="translate(679 494)"/><path d="m0 0 7 2-1 4-4 1V3H0v4l-3-1-1 2h9l-1 4 3 2H-6l3-2v-2l-3-2V2h6z" style="fill:#c2c1c1" transform="translate(801 494)"/><path d="M0 0c2 .375 2 .375 4 1l3-1v9H1l1-3H0v5l5-1-1 3c-1.666.043-3.334.04-5 0-1.555-1.555-1.458-3.23-1.75-5.375l-.36-2.398C-3 3-3 3-1.64 1.187z" style="fill:#d8d8d8" transform="translate(1029 495)"/><path d="M0 0c1 2 1 2 0 5 1.708-1.634 2.935-2.87 4-5 3.4 1.133 4.053 2.125 6 5L9 7 4 3l.125 3.813C4.239 10.29 4.059 10.91 2 14h-4V8h-2c1.125-2.972 2.223-5.334 4-8" style="fill:#dfdfdf" transform="translate(1110 494)"/><path d="M0 0h3l1 6 1-4h7l2 7H0V7h2V2H0z" style="fill:#b0b0b0" transform="translate(1066 499)"/><path d="M0 0h12l-1 13H6v-2l3-1 1-8-6 1 5 4c-2.938 2.503-5.179 3.47-9 4V9l5-1-2.5-2.875C0 2.25 0 2.25 0 0" style="fill:#a9a8a9" transform="translate(715 495)"/><path d="m0 0 5 1-3 1 1 3h5l.375 2.375C8.791 10.141 8.791 10.141 11 12H0z" style="fill:#666566" transform="translate(1150 496)"/><path d="M0 0h9v1l-2.437.375L4 2 3 4l4-2 2 7H-4l2-8h1v6l3-6z" style="fill:#cbcaca" transform="translate(880 499)"/><path d="M0 0h2L0 4l7 1v7l-4 1 2-6H2l-.25 1.813C.795 11.596-.571 12.433-3 14l.938-1.812C-.899 9.91-.899 9.91 0 7l-4-2a105 105 0 0 1 4-5" style="fill:#d8d7d8" transform="translate(949 495)"/><path d="M0 0h2v2h4l-.508 1.828-.617 2.422-.633 2.39C3.957 11.42 4.55 12.66 6 15l-6-3V7l-3-1h2z" style="fill:silver" transform="translate(762 494)"/><path d="m0 0 8 4v2H-6V4a125 125 0 0 1 6-4" style="fill:#c5c5c5" transform="translate(841 494)"/><path d="m0 0 1.703.96c2.449 1.11 4.38 1.43 7.047 1.666l2.422.227L13 3v1L6 5l-2 5h7v1c-7.75.125-7.75.125-10-1a101 101 0 0 1-2-6h3z" style="fill:#979697" transform="translate(876 495)"/><path d="m0 0 1.813.563C4.164 1.22 4.164 1.22 7 0v9H5l-.125-1.875L4 5C1.004 3.695 1.004 3.695-2 3z" style="fill:#a8a7a8" transform="translate(1029 495)"/><path d="M0 0c1 2 1 2 0 5l2 1v6l-4 2V8h-2c1.125-2.972 2.223-5.334 4-8" style="fill:#9b9a9a" transform="translate(1110 494)"/><path d="M0 0c3 1 3 1 5 2v2h-6v2l-3-1a278 278 0 0 0-4-1V2l3.438-.437C-1.192 1.388-1.192 1.388 0 0" style="fill:#c7c6c6" transform="translate(994 502)"/><path d="M0 0v2h3v4h-9l1-5c3-1 3-1 5-1" style="fill:#c3c3c3" transform="translate(1076 494)"/><path d="m0 0 7 2-1 4-4 1V3H0l-1 4-1-3c-2-1.209-2-1.209-4-2h6z" style="fill:#e1e1e1" transform="translate(801 494)"/><path d="M0 0h5v6H0z" style="fill:#7c7c7c" transform="translate(1153 501)"/><path d="M0 0h5v6H0z" style="fill:#aeaeae" transform="translate(836 501)"/><path d="M0 0h7v4H0z" style="fill:#a7a6a6" transform="translate(1071 501)"/><path d="m0 0 1 4h3L3 8 1 7V5l-5 1V1h2v2l2 1z" style="fill:#212021" transform="translate(1033 500)"/><path d="M0 0h9v3H0z" style="fill:#a3a3a3" transform="translate(988 498)"/><path d="M0 0h1v13h-2a226 226 0 0 1-.625-4.25l-.352-2.39C-2.003 3.677-1.366 2.272 0 0" style="fill:#e2e1e1" transform="translate(1149 495)"/><path d="M0 0h7v8C4.352 5.422 2.056 3.084 0 0" style="fill:#161415" transform="translate(718 497)"/><path d="M0 0a56.5 56.5 0 0 1 7 4C4.062 6.503 1.821 7.47-2 8V6l5-1z" style="fill:#d8d8d8" transform="translate(717 498)"/><path d="M0 0h1v12h-5v-2l3-1z" style="fill:#d5d5d5" transform="translate(725 496)"/><path d="m0 0 1 4-6 1V1c3-1 3-1 5-1" style="fill:#1d1b1c" transform="translate(762 501)"/><path d="M0 0c2 .25 2 .25 4 1l1 3h-6c0-3 0-3 1-4" style="fill:#9a999a" transform="translate(1029 495)"/><path d="M0 0h3L1 5h7v1H0z" style="fill:#0c0a0b" transform="translate(879 500)"/></svg>