<svg xmlns="http://www.w3.org/2000/svg" width="244" height="246" viewBox="0 0 244 246"><path d="M0 0h244v246H0z" style="fill:#000"/><path d="M0 0c9.101-.232 18.202-.41 27.305-.518a869 869 0 0 0 12.682-.236c4.085-.11 8.168-.169 12.254-.195q2.33-.027 4.659-.108c12.124-.407 12.124-.407 17.003 3.208C76.19 4.661 78.111 7.183 80 10a331 331 0 0 0 3.23 4.027q1.485 1.95 2.957 3.91l1.625 2.135A610 610 0 0 1 96.84 32.32l1.915 2.649a591 591 0 0 1 3.664 5.138l1.683 2.334 1.479 2.085L107 46h3a79 79 0 0 0 4.938-6l1.448-1.89A826 826 0 0 0 121 32l1.557-2.072q3.082-4.107 6.156-8.22C143.9 1.397 143.9 1.397 149.243.387a100 100 0 0 1 10.319-.516l3.81-.01 4.058.006 4.2-.003q4.38-.002 8.76.006 5.625.006 11.248-.004 4.326-.005 8.652 0 2.076 0 4.15-.002c1.925-.003 3.85.002 5.774.007l3.321.002C216 0 216 0 217 1c.88 4.489.928 8.426-1.434 12.43-2.114 2.595-4.334 5.075-6.566 7.57a496 496 0 0 0-4.687 6.125c-5.39 7.058-11.001 13.93-16.622 20.805-2.822 3.454-5.63 6.92-8.441 10.383a2969 2969 0 0 1-11.125 13.624 504 504 0 0 0-9.297 11.731c-2.875 3.668-5.846 7.257-8.812 10.852L148 97l-1.89 2.012c-1.371 1.954-1.371 1.954-.669 4.273 2.134 3.716 4.744 6.878 7.496 10.153q1.778 2.146 3.551 4.296l1.796 2.17c2.5 3.054 4.922 6.166 7.341 9.284a366 366 0 0 0 11 13.437c4.238 4.948 8.199 10.043 12.07 15.285 2.51 3.364 5.082 6.67 7.68 9.965l1.38 1.751 2.803 3.548a5447 5447 0 0 1 7.442 9.451l1.384 1.757A1686 1686 0 0 1 213 189l1.766 2.074c1.55 2.418 1.765 4.265 1.984 7.113l.234 2.668L217 203c-1.703 1.703-3.888 1.128-6.216 1.13l-3.381.009-3.696-.006-3.796.003q-3.999 0-7.998-.006-4.065-.006-8.132 0-5.88.009-11.761.003l-3.616.006c-24.019-.065-24.019-.065-27.826-3.623-1.21-1.564-1.21-1.564-2.328-3.266l-1.325-1.775a161 161 0 0 1-2.654-3.679c-1.942-2.745-4.058-5.349-6.146-7.983-4.165-5.439-8.212-10.967-12.25-16.5l-1.761-2.398-1.622-2.24-1.457-2.002C110 159 110 159 110 157c-7.932 7.749-14.698 16.404-21.133 25.41a227 227 0 0 1-7.168 9.38c-1.753 2.213-1.753 2.213-3.304 4.733-4.065 6.121-4.065 6.121-7.66 7.083l-2.568.138-2.958.167c-5.877.163-11.747.21-17.627.187l-4.056-.005q-5.28-.006-10.559-.024-5.41-.014-10.82-.02Q11.572 204.033 1 204c-1.283-7.913-1.283-7.913 1-12a115 115 0 0 1 4.5-5.5c3.6-4.207 7.084-8.47 10.438-12.875 3.484-4.571 7.002-9.112 10.562-13.625 3.512-4.455 6.992-8.931 10.438-13.437a710 710 0 0 1 10.874-13.813c5.044-6.266 9.958-12.624 14.824-19.028l1.551-2.042 1.454-1.931c1.203-1.548 2.494-3.026 3.796-4.491 1.745-2.071 1.745-2.071 1.586-4.235-1.435-2.837-3.313-4.997-5.398-7.398q-1.372-1.601-2.738-3.207l-1.44-1.69c-2.407-2.875-4.707-5.832-7.01-8.79A599 599 0 0 0 45.5 67.5c-3.376-4.098-6.67-8.252-9.937-12.437A469 469 0 0 0 25 42a522 522 0 0 1-13.305-16.547 190 190 0 0 0-5.39-6.656L3.813 15.75l-2.231-2.64C-.086 9.83-.173 8.391-.098 4.805l.042-2.728z" style="fill:#790b97" transform="translate(12 24)"/><path d="M0 0c3.75-.174 7.498-.28 11.25-.375l3.223-.152C17.423-.583 20.1-.553 23 0c2.441 2.637 2.441 2.637 4 6a434 434 0 0 0 4.688 6.188l1.324 1.717c2.728 3.52 5.52 6.979 8.363 10.408 4.11 4.98 7.981 10.112 11.832 15.294C57.059 44.78 61.014 49.866 65 54.937c5.57 7.11 10.847 14.38 16.008 21.79 3.084 4.426 6.255 8.787 9.43 13.148a688 688 0 0 1 13 18.563c4.966 7.325 10.124 14.481 15.406 21.582a619 619 0 0 1 11.031 15.355c6.51 9.318 13.44 18.309 20.361 27.322 2.94 3.838 5.839 7.706 8.725 11.584a465 465 0 0 0 4.578 6l1.278 1.662a1219 1219 0 0 0 3.53 4.56C170 199 170 199 170 202c-9.227 1.201-9.227 1.201-12.902-1.29-1.864-2.14-3.47-4.383-5.098-6.71-1.266-1.632-2.555-3.244-3.844-4.858a607 607 0 0 1-4.27-5.439q-2.792-3.59-5.616-7.156a869 869 0 0 1-15.974-20.836 325 325 0 0 0-10.968-13.89C110 140 110 140 110 138c-3.653 2.713-6.226 5.39-8.812 9.125-2.614 3.695-5.275 7.297-8.126 10.813a321 321 0 0 0-8.312 10.75c-3.488 4.685-7.084 9.264-10.75 13.812-8.776 10.243-8.776 10.243-16 21.5H1c-1.161-8.13-1.161-8.13 1-12a115 115 0 0 1 4.5-5.5c3.6-4.207 7.084-8.47 10.438-12.875 3.484-4.571 7.002-9.112 10.562-13.625 3.512-4.455 6.992-8.931 10.438-13.437a710 710 0 0 1 10.874-13.813c5.044-6.266 9.958-12.624 14.824-19.028l1.551-2.042 1.454-1.931c1.203-1.548 2.494-3.026 3.796-4.491 1.745-2.071 1.745-2.071 1.586-4.235-1.435-2.837-3.313-4.997-5.398-7.398q-1.372-1.601-2.738-3.207l-1.44-1.69c-2.407-2.875-4.707-5.832-7.01-8.79A599 599 0 0 0 45.5 67.5c-3.376-4.098-6.67-8.252-9.937-12.437A469 469 0 0 0 25 42a522 522 0 0 1-13.305-16.547 190 190 0 0 0-5.39-6.656L3.813 15.75l-2.231-2.64C-.646 8.73-.325 4.82 0 0" style="fill:#790b97" transform="translate(12 24)"/><path d="M0 0c19.77-1.48 19.77-1.48 25.02 2.004C26.716 4.287 27.98 6.35 29 9l-1 2a640 640 0 0 1-3.5-3.875l-1.969-2.18C21 3 21 3 21 1l-8 1 2.02 2.57 1.331 1.695 2.968 3.776q3.722 4.736 7.439 9.479a1950 1950 0 0 0 14.305 18.043A844 844 0 0 1 53.28 53.156C56.322 57.13 59.402 61.071 62.5 65c5.221 6.625 10.372 13.303 15.5 20l1-2c3.65 1.216 4.114 2.28 6.188 5.438 3.032 4.48 6.262 8.694 9.667 12.894 2.726 3.391 5.37 6.84 8.016 10.295 3.05 3.98 6.126 7.938 9.212 11.89a1208 1208 0 0 1 16.373 21.437c5.54 7.414 11.248 14.696 16.942 21.992 7.582 9.725 15.029 19.549 22.39 29.441a207 207 0 0 0 3.06 3.953C172 202 172 202 172 204q-7.52.037-15.04.055-2.547.008-5.096.02c-4.87.025-9.738.018-14.609-.046a495 495 0 0 0-4.377-.038c-11.726-.094-11.726-.094-15.3-3.475-1.21-1.564-1.21-1.564-2.328-3.266l-1.325-1.775a161 161 0 0 1-2.654-3.679c-1.942-2.745-4.058-5.349-6.146-7.983-4.165-5.439-8.212-10.967-12.25-16.5l-1.761-2.398-1.622-2.24-1.457-2.002C87 159 87 159 87 157c-7.932 7.749-14.698 16.404-21.133 25.41-2.307 3.2-4.7 6.315-7.183 9.38-1.746 2.196-1.746 2.196-3.149 4.733-1.682 2.713-2.984 4.539-5.535 6.477-5.06 1.052-9.85 1.166-15 1 1.548-4.977 4.513-8.339 7.813-12.25 4.676-5.647 9.25-11.35 13.687-17.187l1.611-2.119q1.623-2.135 3.242-4.272a3338 3338 0 0 1 13.215-17.308q1.366-1.779 2.727-3.56a695 695 0 0 1 3.33-4.304c.59-.763 1.18-1.526 1.79-2.312C84 139 84 139 87 138l2.273 3.043c13.495 18.042 27.247 35.893 41.472 53.367 1.14 1.445 2.198 2.957 3.243 4.473 2.584 2.718 4.07 2.798 7.762 2.93l2.984.144L147 202c-2.976-5.545-6.454-10.34-10.375-15.25-11.436-14.517-22.217-29.515-33.012-44.512q-2.443-3.387-4.894-6.77c-7.821-10.796-15.531-21.666-23.198-32.572a2464 2464 0 0 0-25.28-35.313C42.686 57.227 34.974 47.033 27 37a1657 1657 0 0 1-3.437-4.437 530 530 0 0 0-6.375-8.06C0 3.184 0 3.184 0 0" style="fill:#8b1ea6" transform="translate(35 24)"/><path d="M0 0c1.435-.135 2.873-.232 4.313-.312l2.425-.176C9 0 9 0 10.418 2.055L12 5c1.918 2.545 3.968 4.983 6 7.438q1.767 2.153 3.531 4.308l1.778 2.171c2.435 2.999 4.817 6.037 7.191 9.083 3.912 5.015 7.905 9.956 11.938 14.875 4.848 5.923 9.484 11.97 14.04 18.12 4.6 6.18 9.451 12.136 14.33 18.095a869 869 0 0 1 9.317 11.597l1.362 1.71C83.91 95.477 86.065 98.591 88 102c-6.782 9.798-14.031 19.092-21.602 28.29-2.251 2.753-4.427 5.561-6.597 8.378-8.22 10.645-16.57 21.195-25.114 31.582-3.93 4.79-7.767 9.648-11.578 14.533-3.716 4.752-7.543 9.397-11.43 14.01C9.828 200.981 9.828 200.981 9 204H1c-.945-4.82-1.201-7.604 1-12a115 115 0 0 1 4.5-5.5c3.6-4.207 7.084-8.47 10.438-12.875 3.484-4.571 7.002-9.112 10.562-13.625 3.512-4.455 6.992-8.931 10.438-13.437a710 710 0 0 1 10.874-13.813c5.044-6.266 9.958-12.624 14.824-19.028l1.551-2.042 1.454-1.931c1.203-1.548 2.494-3.026 3.796-4.491 1.745-2.071 1.745-2.071 1.586-4.235-1.435-2.837-3.313-4.997-5.398-7.398q-1.372-1.601-2.738-3.207l-1.44-1.69c-2.407-2.875-4.707-5.832-7.01-8.79A599 599 0 0 0 45.5 67.5c-3.376-4.098-6.67-8.252-9.937-12.437A469 469 0 0 0 25 42a522 522 0 0 1-13.305-16.547 190 190 0 0 0-5.39-6.656C1.62 13.07-1.065 9.319-.316 1.766z" style="fill:#990cbe" transform="translate(12 24)"/><path d="M0 0c2.813.375 2.813.375 3.813 1.375.88 4.489.928 8.426-1.434 12.43-2.115 2.595-4.334 5.075-6.566 7.57A496 496 0 0 0-8.875 27.5c-5.39 7.058-11 13.93-16.622 20.805-2.821 3.454-5.63 6.92-8.44 10.383a2969 2969 0 0 1-11.126 13.624 504 504 0 0 0-9.296 11.731c-2.876 3.668-5.846 7.257-8.813 10.852l-2.016 2.48-1.89 2.012c-1.37 1.954-1.37 1.954-.668 4.273 2.133 3.716 4.744 6.878 7.496 10.153q1.777 2.146 3.55 4.296l1.796 2.17c2.5 3.054 4.922 6.166 7.342 9.284a366 366 0 0 0 11 13.437c4.237 4.948 8.198 10.043 12.07 15.285 2.509 3.364 5.081 6.67 7.68 9.965l1.38 1.751 2.802 3.548A5447 5447 0 0 1-5.187 183l1.384 1.757a1686 1686 0 0 1 3.616 4.618l1.765 2.074c1.55 2.418 1.766 4.265 1.985 7.113l.234 2.668.015 2.145c-1 1-1 1-4.062 1.75-1.926-.035-1.926-.035-3.937-.75-2.243-2.413-3.96-5.005-5.782-7.75-2.286-3.349-4.806-6.39-7.469-9.437-4.084-4.732-7.91-9.6-11.625-14.625-5.677-7.68-11.651-15.084-17.711-22.463-6.444-7.864-12.695-15.884-18.968-23.884q-2.189-2.786-4.383-5.568a3084 3084 0 0 1-8.062-10.273l-2.024-2.586c-3.977-5.171-3.977-5.171-3.977-7.414h2l.758-1.7c1.443-2.67 3.166-4.785 5.118-7.112l2.437-2.938 1.316-1.586c2.446-2.968 4.846-5.972 7.246-8.977l1.534-1.918c3.915-4.904 7.79-9.839 11.657-14.78 3.48-4.435 7.042-8.798 10.626-13.15 2.624-3.227 5.187-6.498 7.746-9.776 4.23-5.417 8.586-10.71 13.008-15.973 3.808-4.57 7.451-9.271 11.11-13.961l2.444-3.129 2.122-2.887C-3.188.375-3.188.375 0 0" style="fill:#9f0dc7" transform="translate(225.188 23.625)"/><path d="M0 0c3.634 2.782 6.252 6.379 9 10q1.481 1.892 2.965 3.781a610 610 0 0 1 13.875 18.54l1.915 2.648a591 591 0 0 1 3.664 5.138l1.683 2.334 1.479 2.085L36 46h3a79 79 0 0 0 4.938-6l1.448-1.89A826 826 0 0 0 50 32l1.557-2.072q3.083-4.107 6.156-8.22C72.869 1.44 72.869 1.44 77.98.385c4.909-.584 9.829-.509 14.765-.483l3.064.005c3.21.005 6.418.018 9.627.03l6.553.014Q119.995-.032 128 0l-1.922.371c-2.275.436-2.275.436-3.328 2.692L122 5l-1-2 1-2c-5.508.925-8.476 1.664-11.953 6.34l-1.234 1.785q-1.409 1.911-2.82 3.816l-1.47 2.017c-2.58 3.461-5.34 6.773-8.085 10.105C90.818 31.938 85.36 38.92 80 46l-1.719 2.203c-1.416 1.81-1.416 1.81-2.156 4.297C75 55 75 55 72.828 56.64c-3.72 3.104-6.339 6.726-9.203 10.61q-1.633 2.2-3.273 4.39l-1.632 2.186c-2.332 2.947-4.898 5.651-7.52 8.341-1.425 1.764-1.425 1.764-1.014 3.94.757 2.083.757 2.083 2.814 3.893l13-16c0 3.332-.326 3.79-2.3 6.285l-1.464 1.858-1.548 1.92-1.514 1.931C56.87 88.89 55.124 90.918 52 93a947 947 0 0 1-3.875-5.187l-2.18-2.918C42.41 79.632 42.41 79.632 42 77c1.404-2.866 3.362-5.226 5.375-7.687A597 597 0 0 1 54 61l2.164-2.743A770 770 0 0 1 62 51q2.91-3.622 5.813-7.25l1.552-1.94c4.329-5.413 8.62-10.856 12.893-16.314q2.856-3.645 5.734-7.273l1.494-1.889q1.403-1.773 2.811-3.541C95.057 9.298 97.578 5.73 100 2q-2.376.214-4.75.438c-.882.08-1.763.162-2.672.246C89.214 3.049 89.214 3.049 86 4c-1.05 1.763-1.05 1.763-2 4a225 225 0 0 1-4.437 5.875l-1.34 1.721A2421 2421 0 0 1 74 21l-2.648 3.402a1102 1102 0 0 1-16.493 20.601c-2.727 3.336-5.412 6.694-8.023 10.122l-1.514 1.977a351 351 0 0 0-2.808 3.734C41.41 62.279 40.213 63.648 39 65h-3c-2.023-2.246-2.023-2.246-4.375-5.437l-2.691-3.602-1.442-1.95c-2.57-3.465-5.187-6.895-7.805-10.324l-1.653-2.168A593 593 0 0 0 6.375 26.813l-1.614-1.977-1.597-1.957C.01 19.015-3.136 15.146-6.25 11.25l-1.413-1.735C-9.843 6.77-11.553 4.537-12 1-7.774-.409-4.387-1.135 0 0" style="fill:#9528aa" transform="translate(83 24)"/><path d="M0 0c4.803 1.85 6.486 5.482 9.121 9.688 2.533 3.117 4.992 3.978 8.884 4.666 3.602 1.166 5.236 4.859 7.245 7.896A448 448 0 0 0 40 42.563l2.047 2.668 4.02 5.242c2.94 3.845 5.846 7.714 8.746 11.59l1.47 1.965Q58.143 66.513 60 69l1.824 2.246C63 73 63 73 63 76c-9.227 1.201-9.227 1.201-12.902-1.29-1.864-2.14-3.47-4.383-5.098-6.71-1.266-1.632-2.555-3.244-3.844-4.858a607 607 0 0 1-4.27-5.439q-2.792-3.59-5.616-7.156A869 869 0 0 1 15.296 29.71 325 325 0 0 0 4.328 15.82C3 14 3 14 3 12c-3.653 2.713-6.226 5.39-8.812 9.125-2.614 3.695-5.275 7.297-8.125 10.813a321 321 0 0 0-8.313 10.75 426 426 0 0 1-12.308 15.711c-2.433 2.988-4.73 5.96-6.786 9.222-5.236 8.054-5.236 8.054-9.879 9.117-3.026.01-5.804-.195-8.777-.738 1.583-3.504 3.677-6.38 6-9.437l1.204-1.587q1.262-1.66 2.528-3.317c1.214-1.588 2.42-3.18 3.627-4.772 5.147-6.753 10.445-13.364 15.817-19.938 5.996-7.354 11.777-14.864 17.453-22.469l1.33-1.764q1.815-2.416 3.62-4.841C-5.82 4.785-3.169 2.49 0 0" style="fill:#770796" transform="translate(119 150)"/><path d="M0 0c8.41 8.216 15.516 17.578 22.629 26.91a414 414 0 0 0 6.433 8.153C33.523 40.599 37.764 46.292 42 52l1-2c3.65 1.216 4.114 2.28 6.188 5.438 3.032 4.48 6.262 8.694 9.667 12.894 2.726 3.391 5.37 6.84 8.016 10.295 3.05 3.98 6.126 7.938 9.212 11.89a1208 1208 0 0 1 16.373 21.437c5.54 7.414 11.248 14.696 16.942 21.992 7.582 9.725 15.029 19.549 22.39 29.441a207 207 0 0 0 3.06 3.953C136 169 136 169 136 171c-4.266.924-7.757 1.124-12 0-3.596-3.58-6.035-7.658-8.679-11.964-2.232-3.44-4.841-6.561-7.446-9.724-4.026-4.966-7.909-9.991-11.633-15.19-2.965-4.128-5.977-8.219-8.992-12.31l-1.838-2.493a2481 2481 0 0 0-14.275-19.143q-3.448-4.587-6.867-9.196c-6.144-8.259-12.322-16.403-18.997-24.242-3.233-3.894-6.218-7.96-9.222-12.031a116 116 0 0 0-5.614-6.832C28 45 28 45 28 43c2.868.339 3.835.808 5.746 3.04l1.691 2.585 1.813 2.727L39 54a498 498 0 0 0 2.938 4C44 61 44 61 44 63h2c-1.558-5.063-4.652-8.52-8-12.5l-5.327-6.452c-2.344-2.869-4.613-5.79-6.86-8.736l-2.422-3.171L21 29q-2.465-3.221-4.937-6.437l-1.221-1.594a587 587 0 0 0-6.916-8.828l-1.541-1.936a694 694 0 0 0-2.982-3.713C0 2.222 0 2.222 0 0" style="fill:#9127ac" transform="translate(71 57)"/><path d="m0 0 2.75.313C.516 4.319-2.176 7.693-5.187 11.125c-4.277 4.956-8.294 10.051-12.188 15.313a367 367 0 0 1-12.684 16.19c-2.359 2.89-4.621 5.84-6.878 8.81-4.535 5.957-9.279 11.727-14.056 17.49-4.688 5.666-9.258 11.413-13.773 17.217-2.928 3.758-5.967 7.426-9.023 11.082-1.998 2.79-1.998 2.79-2.461 6.085a50.5 50.5 0 0 0 4.25 5.876l1.382 1.723a600 600 0 0 0 2.911 3.602 308 308 0 0 1 4.082 5.167c5.033 6.493 10.196 12.868 15.438 19.195 5.384 6.5 10.588 13.104 15.7 19.82 6.24 8.155 12.653 16.17 19.182 24.094A322 322 0 0 1-7.625 190c2.861 3.725 5.912 7.226 9.09 10.684 1.285 1.629 1.285 1.629 1.285 3.629-2.952.676-4.187.934-7 0-2.249-2.41-3.96-5.004-5.781-7.75-2.286-3.35-4.807-6.391-7.469-9.438-4.085-4.731-7.91-9.599-11.625-14.625-5.678-7.679-11.652-15.084-17.712-22.463-6.443-7.864-12.695-15.884-18.968-23.884q-2.188-2.786-4.382-5.567a3084 3084 0 0 1-8.063-10.273l-2.023-2.586c-3.977-5.172-3.977-5.172-3.977-7.415h2l.758-1.699c1.442-2.671 3.165-4.786 5.117-7.113l2.438-2.937 1.316-1.586c2.445-2.968 4.845-5.973 7.246-8.977l1.534-1.918c3.915-4.904 7.79-9.84 11.657-14.78 3.48-4.436 7.041-8.799 10.625-13.15 2.624-3.227 5.188-6.498 7.746-9.777 4.23-5.417 8.587-10.71 13.008-15.973 3.808-4.57 7.452-9.27 11.11-13.96l2.445-3.13 2.117-2.89C-3.25.312-3.25.312 0 0" style="fill:#f2e5f4" transform="translate(225.25 23.688)"/><path d="M0 0a105 105 0 0 1 3 5c1.924 2.541 3.967 4.983 6 7.438q1.767 2.153 3.531 4.308l1.778 2.171c2.435 2.999 4.817 6.037 7.191 9.083 3.912 5.015 7.905 9.956 11.938 14.875 4.848 5.923 9.484 11.97 14.04 18.12 4.6 6.18 9.451 12.136 14.33 18.095a869 869 0 0 1 9.317 11.597l1.362 1.71C74.91 95.477 77.065 98.591 79 102c-6.782 9.798-14.031 19.092-21.602 28.29-2.251 2.753-4.427 5.561-6.597 8.378-8.22 10.645-16.57 21.195-25.114 31.582-3.93 4.79-7.767 9.648-11.578 14.533-3.716 4.752-7.543 9.397-11.43 14.01C.828 200.981.828 200.981 0 204h-7c1.437-4.508 3.732-7.12 7-10.5 5.342-5.646 10.057-11.608 14.723-17.816 2.201-2.903 4.459-5.761 6.714-8.621l2.766-3.512 1.393-1.767a3565 3565 0 0 0 4.263-5.429 2068 2068 0 0 1 14.059-17.746c3.906-4.895 7.763-9.827 11.628-14.755q3.694-4.71 7.392-9.416l1.358-1.732Q68.122 107.833 72 103c-4.55-10.189-13.74-19.156-20.819-27.693-4.375-5.291-8.6-10.672-12.76-16.135-3.497-4.582-7.067-9.106-10.636-13.633q-2.781-3.53-5.539-7.078c-4.52-5.807-9.101-11.543-13.871-17.148l-1.366-1.608a3469 3469 0 0 0-5.365-6.29 809 809 0 0 1-3.831-4.54l-2.231-2.633C-6 4-6 4-6 1c3-1 3-1 6-1" style="fill:#f2e5f4" transform="translate(21 24)"/><path d="M0 0h2l1 7h3c-1.207 2.742-2.727 5.042-4.5 7.438-1.608 2.184-2.591 3.803-3.562 6.374C-3.248 23.579-4.33 23.787-7 25c-1.911 2.132-2.951 3.867-3.937 6.563C-12 34-12 34-14.063 35.5c-2.181 1.345-2.181 1.345-2.374 3.875-.796 3.712-2.699 5.238-5.563 7.625h-3l-.75 1.691c-1.97 3.64-4.72 6.616-7.375 9.774-1.963 2.425-1.963 2.425-2.91 5.168-1.1 2.697-2.1 3.576-4.403 5.304-5.102 4.237-8.936 9.327-12.949 14.563l-1.323 1.724c-1.326 1.778-1.326 1.778-2.512 3.757C-58.384 90.825-59.47 92.447-61 94c-3.113.684-3.113.684-6.312.438l-3.239-.192L-73 94c1.663-3.825 4.158-6.9 6.75-10.125l2.992-3.766 1.605-2.017c2.277-2.882 4.523-5.788 6.77-8.694A1136 1136 0 0 1-36.16 45.875c6.852-8.39 13.632-16.84 20.222-25.437l2.41-3.141a2675 2675 0 0 0 3.996-5.22A1486 1486 0 0 1-5 6.186l1.422-1.87C-2.432 2.84-1.22 1.413 0 0" style="fill:#9225a7" transform="translate(107 134)"/><path d="M0 0c3.09 1.327 4.682 2.533 6.516 5.344l1.34 2.013L9.25 9.5A230 230 0 0 0 23 28a706 706 0 0 1 3.313 4.25l1.695 2.184 3.304 4.258q2.184 2.813 4.375 5.62l1.406 1.816c1.988 2.543 3.932 4.896 6.239 7.165C45 55 45 55 45 57c-3.737.796-5.412 1.082-9 0-3.72-3.364-6.661-7.172-9.649-11.187a229 229 0 0 0-3.816-4.938c-5.04-6.405-9.856-12.98-14.66-19.562l-1.761-2.398-1.622-2.24-1.457-2.002C2 13 2 13 2 11c-7.932 7.749-14.698 16.404-21.133 25.41a232 232 0 0 1-7.16 9.375c-1.763 2.229-1.763 2.229-3.383 4.774-4.194 6.18-4.194 6.18-7.765 7.004-2.26 0-4.34-.155-6.559-.563 1.645-3.91 4.3-6.846 7.063-10 4.357-5.063 8.45-10.248 12.417-15.625 3.144-4.242 6.398-8.399 9.645-12.562l1.74-2.232q1.696-2.175 3.394-4.348c2.459-3.153 4.906-6.315 7.354-9.476C-1 1-1 1 0 0" style="fill:#9c0bc3" transform="translate(120 170)"/><path d="M0 0c2.882-.613 4.218-.79 7 0 3.53 2.858 6.225 6.432 9 10l1.446 1.836A611 611 0 0 1 32.84 32.32l1.915 2.649a591 591 0 0 1 3.664 5.138l1.683 2.334 1.479 2.085L43 46h3a79 79 0 0 0 4.938-6l1.448-1.89A826 826 0 0 0 57 32l1.557-2.072q3.083-4.107 6.156-8.22C79.856 1.457 79.856 1.457 85.813.188L89 0c0 4.135-2.184 6.123-4.687 9.188l-1.487 1.855C81.226 13.036 79.615 15.019 78 17l-1.636 2.01q-3.29 4.046-6.586 8.087c-5.952 7.312-11.779 14.725-17.29 22.376l-1.235 1.698a704 704 0 0 0-3.343 4.661L46 58h-3a110 110 0 0 1-5.5-7.125 2986 2986 0 0 0-3.258-4.453l-1.653-2.268c-2.258-3.06-4.6-6.05-6.964-9.029l-4.102-5.191c-2.96-3.758-5.897-7.534-8.835-11.309l-1.742-2.234Q8.466 13.201 6 10L4.249 7.753 2.582 5.586 1.077 3.642C0 2 0 2 0 0" style="fill:#980cbf" transform="translate(76 24)"/><path d="M0 0c-1.279 5.953-3.588 9.525-7.5 14.125-4.582 5.43-4.582 5.43-7.5 11.875h-3l-.73 1.64c-1.59 2.956-3.525 5.457-5.582 8.11l-1.308 1.688c-4.162 5.344-8.435 10.597-12.737 15.829a305 305 0 0 0-9.3 11.942c-2.676 3.568-5.478 6.94-8.663 10.072-2.845 2.887-5.425 5.9-7.992 9.031A1854 1854 0 0 0-69 90c-2.064-1.75-2.064-1.75-4.001-4-.049-3.967 2.897-6.522 5.375-9.375 4.469-5.2 8.725-10.53 12.869-15.992 1.816-2.354 3.424-4.405 5.889-6.098C-46.091 52.253-45.375 49.282-44 46c2.129-2.852 2.129-2.852 4.563-5.625q1.35-1.568 2.695-3.14l1.384-1.616c2.182-2.6 4.24-5.292 6.295-7.994l2.477-3.246 1.267-1.66c2.355-3.07 4.742-6.113 7.131-9.157l1.346-1.718A734 734 0 0 1-13 7l1.365-1.708C-7.725.487-6.145-.134 0 0" style="fill:#8715a0" transform="translate(205 25)"/><path d="M0 0a166 166 0 0 1 5.5 7.188l3.277 4.44 1.652 2.247c5.503 7.443 11.235 14.717 16.946 22l1.362 1.739a535 535 0 0 0 7.52 9.359l1.64 2.006a438 438 0 0 0 3.132 3.784C44.205 56.655 46.222 60.296 48 65c-2.234.3-2.234.3-5 0-2.14-2.02-2.14-2.02-4.25-4.812l-2.371-3.07L34 54a950 950 0 0 0-4.312-5.187C19.209 36.008 9.584 22.478 0 9c-3.055 1.328-4.766 2.61-6.742 5.281l-1.52 2.024-1.613 2.195q-1.74 2.323-3.484 4.645c-.6.8-1.198 1.602-1.815 2.428-2.939 3.906-5.944 7.76-8.951 11.615l-1.76 2.26A4026 4026 0 0 1-42 60l-2.102 2.836c-2.456 2.8-4.264 2.916-7.898 3.164 1.548-4.977 4.513-8.339 7.813-12.25 4.676-5.647 9.25-11.35 13.687-17.187l1.611-2.119q1.622-2.135 3.242-4.272C-2.767 0-2.767 0 0 0" style="fill:#f2e5f3" transform="translate(122 162)"/><path d="M0 0c1.453 1.773 1.453 1.773 3.25 4.375 3.725 5.253 7.599 10.362 11.563 15.438l1.83 2.345q4.887 6.254 9.804 12.484c3.93 4.987 7.84 9.988 11.678 15.045l2.195 2.887C42 55 42 55 43 58h3l.691-1.602c1.745-3.196 3.976-5.942 6.246-8.773l3-3.777 1.547-1.941a1163 1163 0 0 0 5.61-7.13c4.833-6.173 9.7-12.318 14.62-18.422a330 330 0 0 0 6.645-8.488l2.079-2.742 1.746-2.367C90.396.618 91.984.32 95 0c-.603 3.145-1.592 5.1-3.555 7.617L89.85 9.684l-1.725 2.191-1.78 2.29A1625 1625 0 0 1 81 21l-2.852 3.668c-5.338 6.854-10.784 13.616-16.29 20.336a379 379 0 0 0-8.022 10.121l-1.514 1.977a351 351 0 0 0-2.808 3.734C48.41 62.279 47.213 63.648 46 65h-3c-2.023-2.246-2.023-2.246-4.375-5.437l-2.691-3.602-1.442-1.95c-2.57-3.465-5.187-6.895-7.804-10.324l-1.654-2.168a593 593 0 0 0-11.659-14.706l-1.614-1.977-1.597-1.957C7.01 19.015 3.864 15.146.75 11.25L-.663 9.515C-2.843 6.77-4.553 4.537-5 1c3-1 3-1 5-1" style="fill:#f2e4f4" transform="translate(76 24)"/><path d="M0 0h3l.66 2.098c1.688 3.657 4.115 6.372 6.778 9.34 4.155 4.736 8.195 9.524 12.062 14.5l1.33 1.709 2.715 3.494c2.687 3.433 5.416 6.833 8.142 10.234l1.606 2.004L40 48l-1 2-1.875-2.437C35.258 44.96 35.258 44.96 33 44l-1 2a819 819 0 0 1-4-4.375l-2.25-2.46C24 37 24 37 24 35l-4 1a1548 1548 0 0 1-7.953-10.125 226 226 0 0 0-5.781-7.125C1.598 13.041-1.062 9.294-.316 1.766z" style="fill:#9d0cc4" transform="translate(12 24)"/><path d="m0 0 1 2 3-1 1.066 1.494c7.173 10.03 14.437 19.88 22.313 29.373l2.433 2.945 2.208 2.645C34 40 34 40 35.5 42.773c1.278 2.38 1.278 2.38 3.543 2.934l2.145.105L45 46l1 3c-3.737.796-5.412 1.082-9 0-3.72-3.364-6.661-7.172-9.649-11.187a229 229 0 0 0-3.816-4.938c-5.04-6.405-9.856-12.98-14.66-19.562l-1.761-2.398-1.622-2.24-1.457-2.002C3 5 3 5 3 3c-7.932 7.749-14.698 16.404-21.133 25.41C-20.98 32.36-23.99 36.174-27 40l-3.937 5.063L-34 49l-1-3a90 90 0 0 1 5.063-7.062l1.625-2.114C-26.552 34.541-24.777 32.27-23 30l3.707-4.777q3.524-4.541 7.066-9.067C-9.097 12.144-6.04 8.08-3 4z" style="fill:#8505a4" transform="translate(119 178)"/><path d="M0 0c0 3.85-1.02 5.7-3 9a216 216 0 0 1-4.184 3.324C-13.044 17.73-17.632 24.825-21 32h-2v2c6.017-5.834 11.416-12.084 16.379-18.836C-3.521 11.026-.248 7.023 3 3l1 3c-.972 1.654-.972 1.654-2.492 3.434L-.13 11.4l-1.746 2.037a557 557 0 0 0-3.367 3.997l-1.527 1.783C-8.099 21.144-8.579 22.713-9 25h-2l1 2 7-8c0 4.07-1.581 5.239-4.187 8.313l-2.473 2.96a204 204 0 0 1-4.086 4.641c-2.615 2.744-2.615 2.744-3.191 6.336.926 1.932.926 1.932 2.937 3.75l13-16c0 3.332-.326 3.79-2.3 6.285l-1.464 1.858-1.548 1.92-1.514 1.931C-10.13 43.89-11.876 45.918-15 48a947 947 0 0 1-3.875-5.187l-2.18-2.918C-24.59 34.632-24.59 34.632-25 32c1.404-2.866 3.362-5.226 5.375-7.687l1.684-2.145c1.63-2.07 3.284-4.12 4.941-6.168l2.41-3.059A534 534 0 0 1 0 0" style="fill:#9006a6" transform="translate(150 69)"/><path d="m0 0 5 1C.99 7.203-3.291 13.086-7.875 18.875-17.266 29.691-17.266 29.691-24 42h-8c1.645-3.91 4.3-6.847 7.063-10 4.44-5.157 8.613-10.444 12.656-15.922A664 664 0 0 1-4.437 5.75l1.34-1.738Q-1.55 2.005 0 0" style="fill:#920bb9" transform="translate(108 185)"/><path d="M0 0c0 7.774-9.935 16.36-14.93 22.162A143 143 0 0 0-23 32.5c-2.942 4.142-6.068 8.026-9.375 11.875C-42.35 55.429-42.35 55.429-50 68h2c-1.372 2.954-2.989 5.44-5 8-.945-4.82-1.201-7.604 1-12a115 115 0 0 1 4.5-5.5c3.6-4.207 7.084-8.47 10.438-12.875Q-31.838 38.769-26.5 32a1150 1150 0 0 0 10.625-13.687C-2.978 1.488-2.978 1.488 0 0" style="fill:#8702ac" transform="translate(66 152)"/><path d="M0 0c-1.426 3.119-3.146 5.597-5.312 8.25l-2.114 2.602-1.205 1.473q-2.399 2.939-4.787 5.886Q-18.204 24.109-23 30l-3-1 1-3h-2c.616-3.628 2.138-5.861 4.375-8.75l1.836-2.422L-19 13h3a72 72 0 0 0 3-4l2-1 .875-1.875C-8.04 2.187-4.513 0 0 0" style="fill:#9a0abb" transform="translate(208 60)"/><path d="M0 0c4.266 1.544 6.434 4.752 9.063 8.25l2.94 3.828 1.51 1.979c2.3 3.004 4.644 5.972 6.987 8.943l2.719 3.46a10553 10553 0 0 0 7.318 9.306l2.848 3.617A1705 1705 0 0 1 37 44l1.77 2.07c1.557 2.442 1.728 4.307 1.917 7.18l.2 2.703L41 58l-5-5h2c-1.5-4.669-4.225-8.037-7.312-11.75q-1.63-1.996-3.254-3.996l-1.708-2.101c-2.89-3.605-5.682-7.285-8.476-10.965C13.098 18.726 8.906 13.31 4.586 7.98 0 2.254 0 2.254 0 0" style="fill:#9208b6" transform="translate(188 169)"/><path d="M0 0c4.218 1.54 6.342 4.656 8.938 8.125q1.449 1.893 2.902 3.781l1.542 2.012c3.352 4.313 6.831 8.523 10.29 12.75C31 35.644 31 35.644 31 38c-3.817-1.555-6.192-4.036-9-7l1.063 1.875L24 35l-1 2-10-12 2-2c-2.215-4.762-4.684-8.74-8.457-12.422-1.588-1.624-2.905-3.297-4.23-5.14L.988 3.62C0 2 0 2 0 0" style="fill:#9a0fc4" transform="translate(156 129)"/><path d="M0 0c9.105 4.22 15.863 12.57 21 21 0 4 0 4-1.187 5.688C17.583 28.3 15.702 28.635 13 29v-3l-2-1 3-1c-1.343-5.058-3.72-8.584-7-12.562C4.033 7.813 1.479 4.51 0 0" style="fill:#a111c2" transform="translate(72 103)"/><path d="M0 0h2c1.796 2.24 3.41 4.578 5.05 6.934C9.382 9.404 10.719 9.51 14 10c2.625 2.375 2.625 2.375 5 5l1.813 1.688C22 18 22 18 22 20h-3l1.938 3.375C22.005 25.235 23.04 27.081 24 29l-3 1-1.031-1.398C15.777 22.96 11.409 17.474 7 12L2.5 6.375.469 3.835C-.016 3.23-.501 2.626-1 2z" style="fill:#9707bc" transform="translate(34 59)"/><path d="m0 0 2 3L.234 5.063c-6.624 7.833-12.801 15.94-18.917 24.173C-21.397 32.87-24.199 36.434-27 40l-3.937 5.063L-34 49l-1-3a90 90 0 0 1 5.063-7.062l1.625-2.114C-26.552 34.541-24.777 32.27-23 30l3.707-4.777q3.524-4.541 7.066-9.067C-9.097 12.144-6.04 8.08-3 4z" style="fill:#710b97" transform="translate(119 178)"/><path d="M0 0h3l.813 2.188C4.99 4.976 6.39 7.44 8 10H6V8H3c2.228 3.977 4.84 7.299 7.813 10.75C14.939 23.599 18.64 28.59 22 34c-3.5-.562-4.875-1.596-7.059-4.352l-1.67-2.082-1.709-2.191-1.697-2.121A462 462 0 0 1 5 17l-1.513-1.894C.717 11.508-.625 9.131-.313 4.563l.137-2.622z" style="fill:#8c09b8" transform="translate(12 24)"/><path d="M0 0c0 4.07-1.581 5.239-4.187 8.313l-2.473 2.96a204 204 0 0 1-4.086 4.641c-2.615 2.744-2.615 2.744-3.191 6.336.926 1.932.926 1.932 2.937 3.75L2 10c0 3.332-.326 3.79-2.3 6.285l-1.464 1.858-1.548 1.92-1.514 1.931C-7.13 24.89-8.876 26.918-12 29c-2.732-3.298-4.807-5.906-5.562-10.187.69-3.454 1.791-4.694 4.562-6.813h2l1-4 1.797-.277C-5.475 6.828-4.53 5.66-2.75 3.438l1.578-1.942z" style="fill:#b659bf" transform="translate(147 88)"/><path d="M0 0c2.675.378 3.806.798 5.703 2.777l1.547 2.16L8.828 7.09C10 9 10 9 10 11l3 1c3.528 3.756 6.669 7.705 7 13-4.89-1.371-7.14-4.22-10-8.187l-1.316-1.775a495 495 0 0 1-2.546-3.476 227 227 0 0 0-2.896-3.87C0 3.383 0 3.383 0 0" style="fill:#9f0cce" transform="translate(152 129)"/><path d="M0 0c3.89 1.497 5.47 3.704 7.75 7.125l1.86 2.758L11 12l-1 2C6.125 9.25 6.125 9.25 5 7L2 6v4l-3-1-6 7-4-1C-8.017 9.273-4.377 4.734 0 0" style="fill:#9b12ba" transform="translate(120 170)"/><path d="m0 0 3 1-1.8 2.133C-5.37 10.96-11.727 18.935-18 27l-2.25 2.887A3529 3529 0 0 0-25 36l-2-1c3.596-7.812 9.48-14.6 15.2-20.95 2.824-3.216 5.452-6.586 8.1-9.948C-2 2-2 2 0 0" style="fill:#890ca8" transform="translate(180 92)"/><path d="M0 0c4.005 1.545 6.288 4.33 8.938 7.563l1.409 1.7A721 721 0 0 1 15 15l1.78 2.195A726 726 0 0 1 22.186 24l1.748 2.174c3.982 5.142 3.982 5.142 4.428 8.826L28 37l-1.621-2.035a1304 1304 0 0 0-6.796-8.384A1988 1988 0 0 1 4.688 8.125L3.252 6.342C0 2.231 0 2.231 0 0" style="fill:#8105ab" transform="translate(58 90)"/><path d="M0 0c0 3.995-1.199 4.199-4 7a149 149 0 0 0-2.75 4.125C-10.169 16.369-14.04 21.159-18 26l-2.441 3.078-2.434 3.047-2.242 2.82L-27 37h-2v-2l1.25-1.187c1.945-1.853 1.945-1.853 3.375-4.813C-20.561 22.082-15.331 15.7-9 11c1.155-2.471 1.155-2.471 2-5 2.11-3.166 3.735-4.196 7-6" style="fill:#820998" transform="translate(156 66)"/><path d="M0 0h40l-4 1c-1.284 1.984-1.284 1.984-2 4l-1-2 1-2c-6.33.982-9.063 2.449-12.969 7.54L20 10c0-3.204.743-5.094 2-8-3.29-.418-3.29-.418-7 0-2.94 2.354-2.94 2.354-5 5l2-5-2.082.219-2.73.281-2.708.281C2 3 2 3-1 3z" style="fill:#9b42b1" transform="translate(171 24)"/><path d="M0 0c8.41 8.217 15.517 17.582 22.633 26.914A430 430 0 0 0 29 35c4.768 5.922 9.381 11.962 14 18l-1 2c-6.842-7.947-13.438-16.02-19.77-24.38a1603 1603 0 0 0-6.167-8.058l-1.221-1.593a587 587 0 0 0-6.916-8.828l-1.541-1.936a694 694 0 0 0-2.982-3.713C0 2.222 0 2.222 0 0" style="fill:#d18fd7" transform="translate(71 57)"/><path d="M0 0c1 2 1 2 .313 4.5C-1.212 7.404-2.108 7.686-5 9c-1.911 2.132-2.951 3.867-3.937 6.563C-10 18-10 18-12.063 19.5c-2.181 1.345-2.181 1.345-2.374 3.875-.796 3.712-2.699 5.238-5.563 7.625h-3l-.875 1.938C-25 35-25 35-27 36c1.64-3.717 4.007-6.766 6.5-9.937l2.7-3.47 1.4-1.792a815 815 0 0 0 4.107-5.332l1.324-1.731 1.281-1.675A329 329 0 0 1 0 0" style="fill:#b969c0" transform="translate(105 150)"/><path d="M0 0a729 729 0 0 1-2.875 3.938l-1.617 2.214C-6 8-6 8-8 9l-1-2-1.207 1.496-1.605 1.941-1.583 1.934C-15 14-15 14-18 15c.522-4.1 1.635-6.175 4.438-9.187l1.87-2.043C-7.935-.16-5.466-1.822 0 0" style="fill:#9e0cbc" transform="translate(166 25)"/><path d="M0 0c3.313-.25 3.313-.25 7 0 1.938 1.813 1.938 1.813 3 4v3c1.448 1.857 3.052 3.49 4.688 5.184C16 14 16 14 16 18l-3-1c-.687-2.062-.687-2.062-1-4h-2v-2l-1.797-.254c-2.848-.964-3.718-2.26-5.453-4.683L1.172 3.91C0 2 0 2 0 0" style="fill:#9906c3" transform="translate(76 24)"/><path d="M0 0c-1.535 4.73-4.17 8.07-7.25 11.875l-1.491 1.87C-12.075 17.905-15.475 21.999-19 26l-1-3h2l.168-2.059c1.158-4.093 3.476-6.748 6.145-10.003l1.474-1.854C-2.916 0-2.916 0 0 0" style="fill:#820c96" transform="translate(159 71)"/><path d="M0 0c0 9.318-14.023 21.176-20 28l-2-2 1.363-1.695 1.95-2.43 2.187-2.727a560 560 0 0 0 5.375-6.859l1.475-1.902a787 787 0 0 0 2.88-3.74C-4.647 3.914-2.907 1.939 0 0" style="fill:#820ca6" transform="translate(66 152)"/><path d="M0 0c10.35 4.432 18.565 18.604 24 28h-3c-1.84-1.844-1.84-1.844-3.937-4.5l-2.368-2.992Q13.345 18.756 12 17l-1.59-2.075q-2.496-3.268-4.972-6.55L3.81 6.221C0 1.122 0 1.122 0 0" style="fill:#8108ad" transform="translate(84 28)"/><path d="M0 0h3C2.525 4.279-.026 6.096-3 9l-1.687 2.813L-6 14h-2l-1 9h-5c-.417-2.583-.366-4.381.983-6.66 1.392-1.85 2.84-3.631 4.33-5.402l2.988-3.66 1.432-1.716C-2.88 3.895-2.88 3.895-1.332 1.566-.892 1.05-.452.533 0 0" style="fill:#8e06b4" transform="translate(136 52)"/><path d="M0 0h2C.778 4.034-1.284 6.652-4.082 9.754a105 105 0 0 0-4.43 5.586l-1.336 1.79a359 359 0 0 0-2.636 3.602C-13.587 22.21-14.787 23.612-16 25h-3c2.426-4.306 5.306-8.084 8.375-11.937l1.422-1.803A922 922 0 0 1-5 6l1.396-1.778C-2.448 2.777-1.23 1.383 0 0" style="fill:#7e07a3" transform="translate(227 33)"/><path d="M0 0c-1.47 3.245-3.314 5.806-5.562 8.563l-2.13 2.62L-10 14l-2.527 3.098A3777 3777 0 0 1-19 25l-3-1q3.202-3.915 6.406-7.828 2.568-3.137 5.125-6.281l2.406-2.953 2.215-2.723C-2.332 0-2.332 0 0 0" style="fill:#840aa0" transform="translate(208 60)"/><path d="M0 0c0 3.85-1.02 5.7-3 9a216 216 0 0 1-4.184 3.324c-5.07 4.679-9.416 10.827-12.449 17C-21 32-21 32-23.188 32.875L-25 33c2.802-5.192 5.95-9.695 9.688-14.25.522-.645 1.044-1.29 1.583-1.953C-12.16 14.86-10.58 12.93-9 11l2.785-3.418Q-3.115 3.784 0 0" style="fill:#c378c8" transform="translate(150 69)"/><path d="M0 0c4.169 1.555 6.532 4.59 9.188 8l1.36 1.745C14.136 14.623 15.47 18.875 15 25l-5-5h2c-1.521-4.66-4.09-7.935-7.125-11.687C0 2.263 0 2.263 0 0" style="fill:#890dad" transform="translate(214 202)"/><path d="m0 0 1 4 3-1c-.547 3.375-1.055 5.082-3 8h-3c-1.605-1.68-1.605-1.68-3.187-3.875l-1.606-2.18C-8 3-8 3-8 1l8 1z" style="fill:#a014c9" transform="translate(121 71)"/><path d="M0 0h2a101 101 0 0 1 4.25 5.063A425 425 0 0 0 17 18c-3 0-3 0-5.312-2C8.468 12.594 5.74 8.795 3 5-.995 6.37-3.8 8.257-7 11A43.3 43.3 0 0 1 0 0" style="fill:#982bae" transform="translate(118 146)"/><path d="M0 0c4.506 1.573 6.725 5.09 9.5 8.75l1.434 1.844A173 173 0 0 1 19 22h-3c-1.937-2.082-1.937-2.082-4-4.812C9.781 14.276 7.603 11.567 5 9a98 98 0 0 1-2.687-3.562L.988 3.62C0 2 0 2 0 0" style="fill:#7c08ab" transform="translate(156 129)"/><path d="M0 0c4.097 3.775 7.29 8.19 10.625 12.625q1.736 2.302 3.477 4.602l1.541 2.049c1.39 1.836 1.39 1.836 3.357 3.724v4h-2a109 109 0 0 1-4.375-6.125l-1.172-1.727a570 570 0 0 1-5.601-8.445C4.106 7.95 4.106 7.95 1.75 5.875 0 4 0 4 0 0" style="fill:#7c1499" transform="translate(98 93)"/><path d="M0 0c2.23-.297 2.23-.297 5 0 2.238 2.047 2.238 2.047 4.313 4.75l2.113 2.672C13 10 13 10 13 14c-3.324-.244-4.107-1.122-6.36-3.687Q5.43 8.668 4.25 7L3.004 5.305C0 1.173 0 1.173 0 0" style="fill:#9c11bf" transform="translate(213 208)"/><path d="M0 0a84.4 84.4 0 0 1 12 14v2H-4l-1-4 2 1c1.87.228 3.747.41 5.625.563l3.04.253L8 14c-1.93-3.516-3.741-6.676-6.25-9.812C0 2 0 2 0 0" style="fill:#af6bbe" transform="translate(174 212)"/><path d="m0 0 3 1C-2.53 8.45-8.15 15.796-14 23l-1-3c.94-1.746.94-1.746 2.422-3.652l1.61-2.104 1.718-2.181 1.672-2.17a695 695 0 0 1 3.12-4.018A369 369 0 0 0 0 0" style="fill:#790aa4" transform="translate(99 204)"/><path d="M0 0h2C1.407 3.254.392 5.04-1.8 7.496L-3.515 9.44l-1.799 1.999L-8.8 15.37l-1.666 1.875C-12.385 19.44-14.207 21.703-16 24l-2-1 1.114-1.358q2.539-3.1 5.073-6.204l1.752-2.135c2.75-3.37 5.4-6.743 7.862-10.33z" style="fill:#7b289a" transform="translate(65 170)"/><path d="m0 0 2 2-3.809 4.395C-3.209 8.107-3.209 8.107-4 11h2c-1.372 2.954-2.989 5.44-5 8-.927-4.728-1.437-7.762 1-12 1.911-2.418 3.918-4.728 6-7" style="fill:#8e04bc" transform="translate(20 209)"/><path d="M0 0c6.637 5.084 11.18 11.244 16 18l-3 1a4919 4919 0 0 1-5.375-6.312l-1.54-1.803-1.483-1.748-1.365-1.603C1.076 4.854 0 3.513 0 0" style="fill:#8505ac" transform="translate(18 39)"/><path d="M0 0c1.516 1.688 1.516 1.688 3.25 4l1.86 2.477L7 9l1.828 2.273 1.672 2.102 1.531 1.898L13 17l-1 3a2090 2090 0 0 1-6.375-7.25l-1.828-2.066-1.758-2.012L.42 6.832C-1.023 4.97-2.023 3.135-3 1c1-1 1-1 3-1" style="fill:#7903a0" transform="translate(36 59)"/><path d="M0 0c0 3 0 3-2 5 .319 2.108.319 2.108 1 4l-2.812 1.813c-3.072 1.965-3.072 1.965-4.938 3.937C-10 16-10 16-12 16l-1 3-2-1c4.932-6.06 9.882-12.095 15-18" style="fill:#9f19ba" transform="translate(172 95)"/><path d="M0 0c0 4.034-1.596 5.494-4 8.688l-2.25 3.011L-8 14H3v2h-14v-3h2l.773-1.703C-6.843 8.707-5.2 6.549-3.375 4.25l1.914-2.422z" style="fill:#b066be" transform="translate(67 212)"/><path d="m0 0 1 3a669 669 0 0 1-4.75 5.438l-1.344 1.564C-7.529 12.742-9.24 14.657-13 15c0-3 0-3 2-6l3-1a141 141 0 0 0 5-5z" style="fill:#a510bf" transform="translate(167 105)"/><path d="M0 0h2v8H0V6h-3c-1.206 2.332-2.165 4.496-3 7-2.062 1.688-2.062 1.688-4 3l-2-1 2.371-2.773 3.066-3.602 1.565-1.828C-2.214 3.596-2.214 3.596 0 0" style="fill:#8e28a4" transform="translate(227 25)"/><path d="M0 0c2.923.334 3.862.84 5.816 3.11.577.87 1.153 1.742 1.747 2.64l1.753 2.61A269 269 0 0 1 14 16l-2 1-1.355-1.758c-2.8-3.617-5.592-7.217-8.582-10.68C0 2 0 2 0 0" style="fill:#910baa" transform="translate(99 100)"/><path d="M0 0c3.33 1.43 5.358 3.166 7.75 5.875L9.61 7.93C11 10 11 10 11 14H9a105 105 0 0 1-4.625-5.875L3.102 6.441C0 2.262 0 2.262 0 0" style="fill:#a300ca" transform="translate(72 103)"/><path d="M0 0c3.92 3.804 7.491 7.816 11 12l-1 2-1.875-2.437C6.258 8.96 6.258 8.96 4 8l-1 2-5-6h2z" style="fill:#9416bb" transform="translate(41 60)"/><path d="M0 0h15c-2 5-2 5-5 7l2-5-2.082.219-2.73.281-2.708.281C2 3 2 3-1 3z" style="fill:#a053b2" transform="translate(171 24)"/><path d="m0 0 2 3A243 243 0 0 1-.812 6l-1.583 1.688C-4 9-4 9-7 9l-.875 1.938C-9 13-9 13-11 14c1.478-3.23 3.317-5.89 5.5-8.687l1.844-2.387C-2 1-2 1 0 0" style="fill:#a952b4" transform="translate(89 172)"/><path d="M0 0h3v2h2c2.397 3.196 4.385 6.001 5 10-3.118-1.363-5.047-2.851-7.25-5.437l-1.578-1.81C0 3 0 3 0 0" style="fill:#9f00cc" transform="translate(15 32)"/><path d="M0 0h3C2.498 4.349-.097 6.894-3 10c-2.187 1.313-2.187 1.313-4 2l-2 1v-3c3.333-3 3.333-3 6-3l.375-1.812C-2 3-2 3 0 0" style="fill:#a802c6" transform="translate(224 31)"/><path d="M0 0a91 91 0 0 1 4 4v2h-14V3L1 4z" style="fill:#73248f" transform="translate(217 222)"/><path d="m0 0-4 4V2c-3.151 1.838-6.12 3.76-9 6 0-3 0-3 2.188-5.625C-6.98-.861-4.762-1.587 0 0" style="fill:#951faa" transform="translate(166 25)"/><path d="M0 0c3.017.333 3.989.988 6.14 3.215l2.11 2.723 2.14 2.714C12 11 12 11 12 13c-3.854-1.52-5.736-3.827-8.25-7.062L1.61 3.215C0 1 0 1 0 0" style="fill:#7d0aac" transform="translate(175 154)"/><path d="M0 0h3l1 2c1.895.465 1.895.465 4.063.625L12 3l1 3c-3.074.355-5.941.537-9 0-2.562-3-2.562-3-4-6" style="fill:#8a1ca7" transform="translate(152 221)"/><path d="M0 0c-1.49 3.283-3.386 5.93-5.625 8.75l-1.914 2.422L-9 13l-1-3c1.398-2.227 1.398-2.227 3.375-4.625l1.96-2.414C-2.15 0-2.15 0 0 0" style="fill:#880caa" transform="translate(85 129)"/><path d="M0 0c0 3.342-.482 5.035-2 8-2.312 2-2.312 2-5 4a279 279 0 0 0-5 5c1.745-4.052 4.423-7.306 7.125-10.75l1.418-1.824Q-1.732 2.21 0 0" style="fill:#c277c7" transform="translate(160 71)"/><path d="M0 0h3c1.824 2.082 1.824 2.082 3.688 4.813L8.574 7.52C10 10 10 10 10 13H8C4.978 8.87 2.498 4.461 0 0" style="fill:#8907b8" transform="translate(108 59)"/><path d="M0 0c.684 1.766.684 1.766 1 4C-.215 5.922-.215 5.922-1.937 7.75l-1.715 1.86L-5 11c-2-3-2-3-2-5 1.531-1.508 1.531-1.508 3.5-3.125l1.969-1.633z" style="fill:#a318c3" transform="translate(30 203)"/><path d="M0 0c2.628 1.865 3.864 3.304 4.488 6.492.238 2.504.416 4.995.512 7.508L0 9h2L1 6.75C0 4 0 4 0 0" style="fill:#7c0f99" transform="translate(224 213)"/><path d="M0 0h2l1 3C1.785 4.824 1.785 4.824.063 6.688l-1.715 1.886L-3 10l-3-1c1.528-3.438 3.502-6.19 6-9" style="fill:#9e3ba9" transform="translate(107 134)"/><path d="M0 0h3C2.528 4.252.15 6.3-3 9h-3c3.818-6.545 3.818-6.545 6-9" style="fill:#8202ad" transform="translate(136 52)"/><path d="M0 0c-1.51 4.98-4.557 8.243-8 12l-2-2q1.718-2.22 3.438-4.437l1.933-2.497C-2.212 0-2.212 0 0 0" style="fill:#860da8" transform="translate(229 33)"/><path d="M0 0a141 141 0 0 1 5 5v2H-6V5h8z" style="fill:#9945ad" transform="translate(202 221)"/><path d="M0 0c3.375-.187 3.375-.187 7 0l2 3-1.937.313L5 4 4 7C0 2.25 0 2.25 0 0" style="fill:#9422b6" transform="translate(76 24)"/><path d="M0 0c4.55 1.517 6.5 5.169 9 9l-3 2a783 783 0 0 1-3-4.375l-1.687-2.46C0 2 0 2 0 0" style="fill:#8907b7" transform="translate(156 129)"/><path d="M0 0a365 365 0 0 1 4.875-.125l2.742-.07C10 0 10 0 12 2H3l1 4C2 4.688 2 4.688 0 3z" style="fill:#6a1b88" transform="translate(21 24)"/><path d="M0 0h2C1.407 3.392.233 5.21-2.062 7.75l-1.66 1.86L-5 11l-1-3c1.145-2.043 1.145-2.043 2.813-4.187l1.644-2.168z" style="fill:#751f92" transform="translate(65 170)"/><path d="M0 0c3.095.332 4.028 1.029 6.25 3.313C8 6 8 6 8 10H6C4.492 8.066 4.492 8.066 2.875 5.563L1.242 3.066C0 1 0 1 0 0" style="fill:#73039b" transform="translate(109 110)"/><path d="M0 0c4.55 1.517 6.5 5.169 9 9-3 0-3 0-4.605-1.46L2.813 5.624 1.207 3.727C0 2 0 2 0 0" style="fill:#7e0ab2" transform="translate(188 169)"/><path d="M0 0c3.532 1.177 3.863 1.956 5.688 5.063l1.324 2.222L8 9l-3 1-6-9z" style="fill:#7a03a8" transform="translate(50 79)"/><path d="M0 0c.688 1.75.688 1.75 1 4C-.25 6.25-.25 6.25-2 8h-3l-1-3h2V1z" style="fill:#9813bd" transform="translate(124 74)"/><path d="m0 0 1 3C-.871 5.7-.871 5.7-3.437 8.688l-2.56 3.011C-6.987 12.84-6.987 12.84-8 14l-2-1z" style="fill:#841296" transform="translate(166 50)"/><path d="m0 0 3 1C1.523 5.677 1.523 5.677-1.125 7.313L-3 8c.547-3.375 1.055-5.082 3-8" style="fill:#9606b9" transform="translate(151 32)"/><path d="M0 0h2v4l2 1-4 5C-1.125 3.375-1.125 3.375 0 0" style="fill:#8b1aab" transform="translate(13 218)"/><path d="M0 0c5.571 5.143 5.571 5.143 6 9C2.665 7.62.814 6.15-1 3z" style="fill:#7504af" transform="translate(136 198)"/><path d="M0 0c4 1.333 4.838 3.496 7 7L6 9C3.563 7.875 3.563 7.875 1 6 .188 2.813.188 2.813 0 0" style="fill:#9930b6" transform="translate(114 107)"/><path d="m0 0 2 3-5 6-2-1c.542-3.796 2.201-5.472 5-8" style="fill:#9d15c2" transform="translate(131 65)"/><path d="M0 0c-1.443 3.366-3.333 5.51-6 8-.75-1.75-.75-1.75-1-4 2.332-2.999 3.118-4 7-4" style="fill:#a018bf" transform="translate(47 185)"/><path d="M0 0c3.366 1.443 5.51 3.333 8 6L7 9C4.036 6.192 1.555 3.817 0 0" style="fill:#820cb3" transform="translate(84 28)"/><path d="m0 0 7 1v3c-5.75.125-5.75.125-8-1z" style="fill:#7c1897" transform="translate(38 224)"/><path d="M0 0c4.875 4.625 4.875 4.625 6 8-1.812-.187-1.812-.187-4-1C.188 4.563.188 4.563-1 2z" style="fill:#8b01ae" transform="translate(148 213)"/><path d="M0 0c3.356 1.389 5.073 2.917 7 6v2C3.644 6.611 1.927 5.083 0 2z" style="fill:#8505a1" transform="translate(58 90)"/><path d="M0 0c1 3 1 3-.25 5.563C-2 8-2 8-5 10c0-3.396.522-4.066 2.5-6.687l1.406-1.887z" style="fill:#a11fbd" transform="translate(180 84)"/><path d="M0 0c1 3 1 3-.187 5.5C-1.942 7.92-3.517 9.374-6 11l-2-1z" style="fill:#a427ba" transform="translate(223 30)"/><path d="m0 0 1 2-1.562 1.813L-2 6l1 3h-5c1.527-3.436 3.6-6.12 6-9" style="fill:#9138b3" transform="translate(82 218)"/><path d="M0 0c2.5 2.313 2.5 2.313 5 5v3C1 6.667.162 4.504-2 1z" style="fill:#8003a4" transform="translate(71 104)"/><path d="M0 0h3l1 5H2v3H0z" style="fill:#9036ae" transform="translate(12 24)"/><path d="m0 0 9 1v2H-1z" style="fill:#7b1f92" transform="translate(47 225)"/><path d="m0 0 9 9-1 2a317 317 0 0 1-3.437-3.25L2.629 5.922C.915 3.9.406 2.587 0 0" style="fill:#9524b8" transform="translate(20 34)"/><path d="m0 0 2 3-5 4-2-2z" style="fill:#a417cd" transform="translate(21 214)"/><path d="M0 0c0 3.694-1.282 5.778-3 9h-3c1.527-3.436 3.6-6.12 6-9" style="fill:#b25ebc" transform="translate(193 42)"/><path d="M0 0a56.5 56.5 0 0 1-4 7h-2c.628-3.645 1.853-7 6-7" style="fill:#8d06a9" transform="translate(27 203)"/><path d="m0 0 1 4c-2.437 2.75-2.437 2.75-5 5l-2-1z" style="fill:#a128bc" transform="translate(117 173)"/><path d="M0 0c1.813.188 1.813.188 4 1 1.75 2.563 1.75 2.563 3 5-1.812-.187-1.812-.187-4-1-1.75-2.562-1.75-2.562-3-5" style="fill:#7c07a5" transform="translate(27 52)"/><path d="m0 0 2 3-5 5-2-1z" style="fill:#a025c1" transform="translate(210 46)"/><path d="m0 0 1 3-4 3c0-3 0-3 1.5-4.687zm-7 6 2 1-2 1z" style="fill:#a501c1" transform="translate(167 105)"/><path d="M0 0c1.938.688 1.938.688 4 2 .75 2.625.75 2.625 1 5H3C0 2.615 0 2.615 0 0" style="fill:#7b09a9" transform="translate(113 65)"/><path d="M0 0c1.938.75 1.938.75 4 2 .75 2.125.75 2.125 1 4-1.937-.75-1.937-.75-4-2C.25 1.875.25 1.875 0 0" style="fill:#740bad" transform="translate(91 36)"/><path d="M0 0c1.875.25 1.875.25 4 1 1.25 2.063 1.25 2.063 2 4H4V3H1L0 5z" style="fill:#9312bf" transform="translate(14 29)"/></svg>